<svg width="116" height="19" viewBox="0 0 116 19" fill="none" xmlns="http://www.w3.org/2000/svg">
<path d="M9.17492 18L4.05492 11.2746V18H0.345085V2.77017H4.05492V9.4522L9.13153 2.77017H13.4922L7.59119 10.2332L13.7092 18H9.17492ZM26.8837 11.7519C26.8837 12.099 26.862 12.4606 26.8186 12.8366H18.4227C18.4806 13.5887 18.7192 14.1672 19.1386 14.5722C19.5725 14.9627 20.1005 15.158 20.7224 15.158C21.648 15.158 22.2916 14.7675 22.6532 13.9864H26.6017C26.3992 14.7819 26.0304 15.4979 25.4953 16.1342C24.9746 16.7706 24.3165 17.2696 23.521 17.6312C22.7255 17.9928 21.836 18.1736 20.8525 18.1736C19.6666 18.1736 18.6107 17.9205 17.6851 17.4142C16.7594 16.908 16.0363 16.1849 15.5156 15.2447C14.9949 14.3046 14.7346 13.2054 14.7346 11.9471C14.7346 10.6888 14.9877 9.5896 15.4939 8.64949C16.0146 7.70938 16.7377 6.98621 17.6634 6.48C18.589 5.97378 19.6521 5.72068 20.8525 5.72068C22.0241 5.72068 23.0654 5.96655 23.9766 6.4583C24.8878 6.95005 25.5965 7.65152 26.1027 8.56271C26.6234 9.4739 26.8837 10.5369 26.8837 11.7519ZM23.0871 10.7756C23.0871 10.1392 22.8702 9.63299 22.4363 9.25695C22.0024 8.8809 21.46 8.69288 20.8092 8.69288C20.1872 8.69288 19.6593 8.87367 19.2254 9.23525C18.806 9.59684 18.5457 10.1103 18.4444 10.7756H23.0871ZM36.2171 5.76407C37.6345 5.76407 38.7627 6.22689 39.6015 7.15254C40.4549 8.06373 40.8815 9.32203 40.8815 10.9275V18H37.1934V11.4264C37.1934 10.6165 36.9837 9.98734 36.5642 9.53898C36.1448 9.09062 35.5807 8.86644 34.872 8.86644C34.1633 8.86644 33.5993 9.09062 33.1798 9.53898C32.7604 9.98734 32.5507 10.6165 32.5507 11.4264V18H28.8409V5.89424H32.5507V7.49966C32.9267 6.96452 33.4329 6.54508 34.0693 6.24135C34.7057 5.92316 35.4216 5.76407 36.2171 5.76407ZM46.9307 14.941H52.1809V18H42.787V15.0495L47.8202 8.95322H42.8303V5.89424H52.0724V8.84474L46.9307 14.941ZM56.088 4.63593C55.4371 4.63593 54.902 4.44791 54.4825 4.07186C54.0776 3.68135 53.8751 3.20407 53.8751 2.64C53.8751 2.06147 54.0776 1.58418 54.4825 1.20813C54.902 0.817624 55.4371 0.62237 56.088 0.62237C56.7244 0.62237 57.245 0.817624 57.65 1.20813C58.0694 1.58418 58.2792 2.06147 58.2792 2.64C58.2792 3.20407 58.0694 3.68135 57.65 4.07186C57.245 4.44791 56.7244 4.63593 56.088 4.63593ZM57.932 5.89424V18H54.2222V5.89424H57.932ZM72.032 11.7519C72.032 12.099 72.0103 12.4606 71.967 12.8366H63.571C63.6289 13.5887 63.8675 14.1672 64.287 14.5722C64.7209 14.9627 65.2488 15.158 65.8707 15.158C66.7963 15.158 67.4399 14.7675 67.8015 13.9864H71.75C71.5475 14.7819 71.1787 15.4979 70.6436 16.1342C70.1229 16.7706 69.4648 17.2696 68.6693 17.6312C67.8738 17.9928 66.9844 18.1736 66.0009 18.1736C64.8149 18.1736 63.759 17.9205 62.8334 17.4142C61.9077 16.908 61.1846 16.1849 60.6639 15.2447C60.1432 14.3046 59.8829 13.2054 59.8829 11.9471C59.8829 10.6888 60.136 9.5896 60.6422 8.64949C61.1629 7.70938 61.8861 6.98621 62.8117 6.48C63.7374 5.97378 64.8004 5.72068 66.0009 5.72068C67.1724 5.72068 68.2137 5.96655 69.1249 6.4583C70.0361 6.95005 70.7448 7.65152 71.251 8.56271C71.7717 9.4739 72.032 10.5369 72.032 11.7519ZM68.2354 10.7756C68.2354 10.1392 68.0185 9.63299 67.5846 9.25695C67.1507 8.8809 66.6083 8.69288 65.9575 8.69288C65.3355 8.69288 64.8076 8.87367 64.3737 9.23525C63.9543 9.59684 63.694 10.1103 63.5927 10.7756H68.2354ZM84.5369 6.57763V8.80678H79.8834V11.2149H83.3654V13.379H79.8834V18H77.101V6.57763H84.5369ZM90.1322 18.1302C89.2427 18.1302 88.44 17.9403 87.724 17.5607C87.019 17.181 86.4603 16.6386 86.0481 15.9336C85.6467 15.2285 85.4461 14.4041 85.4461 13.4603C85.4461 12.5275 85.6522 11.7085 86.0644 11.0034C86.4766 10.2875 87.0406 9.73966 87.7566 9.36C88.4725 8.98034 89.2752 8.79051 90.1647 8.79051C91.0542 8.79051 91.8569 8.98034 92.5729 9.36C93.2888 9.73966 93.8529 10.2875 94.2651 11.0034C94.6773 11.7085 94.8834 12.5275 94.8834 13.4603C94.8834 14.3932 94.6718 15.2176 94.2488 15.9336C93.8366 16.6386 93.2671 17.181 92.5403 17.5607C91.8244 17.9403 91.0217 18.1302 90.1322 18.1302ZM90.1322 15.722C90.6637 15.722 91.1139 15.5268 91.4827 15.1363C91.8623 14.7458 92.0522 14.1871 92.0522 13.4603C92.0522 12.7336 91.8678 12.1749 91.499 11.7844C91.141 11.3939 90.6962 11.1986 90.1647 11.1986C89.6223 11.1986 89.1722 11.3939 88.8142 11.7844C88.4562 12.1641 88.2773 12.7227 88.2773 13.4603C88.2773 14.1871 88.4508 14.7458 88.7979 15.1363C89.1559 15.5268 89.6006 15.722 90.1322 15.722ZM100.492 18.1302C99.6029 18.1302 98.8001 17.9403 98.0842 17.5607C97.3791 17.181 96.8205 16.6386 96.4083 15.9336C96.0069 15.2285 95.8062 14.4041 95.8062 13.4603C95.8062 12.5275 96.0123 11.7085 96.4245 11.0034C96.8367 10.2875 97.4008 9.73966 98.1167 9.36C98.8327 8.98034 99.6354 8.79051 100.525 8.79051C101.414 8.79051 102.217 8.98034 102.933 9.36C103.649 9.73966 104.213 10.2875 104.625 11.0034C105.037 11.7085 105.244 12.5275 105.244 13.4603C105.244 14.3932 105.032 15.2176 104.609 15.9336C104.197 16.6386 103.627 17.181 102.9 17.5607C102.185 17.9403 101.382 18.1302 100.492 18.1302ZM100.492 15.722C101.024 15.722 101.474 15.5268 101.843 15.1363C102.223 14.7458 102.412 14.1871 102.412 13.4603C102.412 12.7336 102.228 12.1749 101.859 11.7844C101.501 11.3939 101.056 11.1986 100.525 11.1986C99.9825 11.1986 99.5323 11.3939 99.1744 11.7844C98.8164 12.1641 98.6374 12.7227 98.6374 13.4603C98.6374 14.1871 98.811 14.7458 99.1581 15.1363C99.5161 15.5268 99.9608 15.722 100.492 15.722ZM106.166 13.4441C106.166 12.5112 106.34 11.6922 106.687 10.9871C107.045 10.282 107.528 9.73966 108.135 9.36C108.743 8.98034 109.421 8.79051 110.169 8.79051C110.766 8.79051 111.308 8.91525 111.796 9.16474C112.295 9.41424 112.686 9.75051 112.968 10.1736V5.95932H115.75V18H112.968V16.6983C112.707 17.1322 112.333 17.4793 111.845 17.7397C111.368 18 110.809 18.1302 110.169 18.1302C109.421 18.1302 108.743 17.9403 108.135 17.5607C107.528 17.1702 107.045 16.6224 106.687 15.9173C106.34 15.2014 106.166 14.3769 106.166 13.4441ZM112.968 13.4603C112.968 12.7661 112.773 12.2183 112.382 11.8169C112.002 11.4156 111.536 11.2149 110.983 11.2149C110.429 11.2149 109.958 11.4156 109.567 11.8169C109.187 12.2075 108.998 12.7498 108.998 13.4441C108.998 14.1383 109.187 14.6915 109.567 15.1037C109.958 15.5051 110.429 15.7058 110.983 15.7058C111.536 15.7058 112.002 15.5051 112.382 15.1037C112.773 14.7024 112.968 14.1546 112.968 13.4603Z" fill="black"/>
</svg>
