<svg width="130" height="59" viewBox="0 0 130 59" fill="none" xmlns="http://www.w3.org/2000/svg">
<path d="M10.1749 41.4045L5.05492 34.6791V41.4045H1.34508V26.1747H5.05492V32.8567L10.1315 26.1747H14.4922L8.59119 33.6378L14.7092 41.4045H10.1749ZM27.8837 35.1564C27.8837 35.5035 27.862 35.8651 27.8186 36.2412H19.4227C19.4806 36.9932 19.7192 37.5718 20.1386 37.9767C20.5725 38.3673 21.1005 38.5625 21.7224 38.5625C22.648 38.5625 23.2916 38.172 23.6532 37.391H27.6017C27.3992 38.1865 27.0304 38.9024 26.4953 39.5388C25.9746 40.1752 25.3165 40.6741 24.521 41.0357C23.7255 41.3973 22.836 41.5781 21.8525 41.5781C20.6666 41.5781 19.6107 41.325 18.6851 40.8188C17.7594 40.3126 17.0363 39.5894 16.5156 38.6493C15.9949 37.7092 15.7346 36.61 15.7346 35.3517C15.7346 34.0934 15.9877 32.9941 16.4939 32.054C17.0146 31.1139 17.7377 30.3908 18.6634 29.8845C19.589 29.3783 20.6521 29.1252 21.8525 29.1252C23.0241 29.1252 24.0654 29.3711 24.9766 29.8628C25.8878 30.3546 26.5965 31.0561 27.1027 31.9673C27.6234 32.8784 27.8837 33.9415 27.8837 35.1564ZM24.0871 34.1801C24.0871 33.5437 23.8702 33.0375 23.4363 32.6615C23.0024 32.2854 22.46 32.0974 21.8092 32.0974C21.1872 32.0974 20.6593 32.2782 20.2254 32.6398C19.806 33.0014 19.5457 33.5148 19.4444 34.1801H24.0871ZM37.2171 29.1686C38.6345 29.1686 39.7627 29.6314 40.6015 30.5571C41.4549 31.4683 41.8815 32.7266 41.8815 34.332V41.4045H38.1934V34.831C38.1934 34.021 37.9837 33.3919 37.5642 32.9435C37.1448 32.4952 36.5807 32.271 35.872 32.271C35.1633 32.271 34.5993 32.4952 34.1798 32.9435C33.7604 33.3919 33.5507 34.021 33.5507 34.831V41.4045H29.8409V29.2988H33.5507V30.9042C33.9267 30.3691 34.4329 29.9496 35.0693 29.6459C35.7057 29.3277 36.4216 29.1686 37.2171 29.1686ZM47.9307 38.3456H53.1809V41.4045H43.787V38.454L48.8202 32.3578H43.8303V29.2988H53.0724V32.2493L47.9307 38.3456ZM57.088 28.0405C56.4371 28.0405 55.902 27.8524 55.4825 27.4764C55.0776 27.0859 54.8751 26.6086 54.8751 26.0445C54.8751 25.466 55.0776 24.9887 55.4825 24.6127C55.902 24.2222 56.4371 24.0269 57.088 24.0269C57.7244 24.0269 58.245 24.2222 58.65 24.6127C59.0694 24.9887 59.2792 25.466 59.2792 26.0445C59.2792 26.6086 59.0694 27.0859 58.65 27.4764C58.245 27.8524 57.7244 28.0405 57.088 28.0405ZM58.932 29.2988V41.4045H55.2222V29.2988H58.932ZM73.032 35.1564C73.032 35.5035 73.0103 35.8651 72.967 36.2412H64.571C64.6289 36.9932 64.8675 37.5718 65.287 37.9767C65.7209 38.3673 66.2488 38.5625 66.8707 38.5625C67.7963 38.5625 68.4399 38.172 68.8015 37.391H72.75C72.5475 38.1865 72.1787 38.9024 71.6436 39.5388C71.1229 40.1752 70.4648 40.6741 69.6693 41.0357C68.8738 41.3973 67.9844 41.5781 67.0009 41.5781C65.8149 41.5781 64.759 41.325 63.8334 40.8188C62.9077 40.3126 62.1846 39.5894 61.6639 38.6493C61.1432 37.7092 60.8829 36.61 60.8829 35.3517C60.8829 34.0934 61.136 32.9941 61.6422 32.054C62.1629 31.1139 62.8861 30.3908 63.8117 29.8845C64.7374 29.3783 65.8004 29.1252 67.0009 29.1252C68.1724 29.1252 69.2137 29.3711 70.1249 29.8628C71.0361 30.3546 71.7448 31.0561 72.251 31.9673C72.7717 32.8784 73.032 33.9415 73.032 35.1564ZM69.2354 34.1801C69.2354 33.5437 69.0185 33.0375 68.5846 32.6615C68.1507 32.2854 67.6083 32.0974 66.9575 32.0974C66.3355 32.0974 65.8076 32.2782 65.3737 32.6398C64.9543 33.0014 64.694 33.5148 64.5927 34.1801H69.2354ZM85.5369 29.9822V32.2113H80.8834V34.6195H84.3654V36.7835H80.8834V41.4045H78.101V29.9822H85.5369ZM91.1322 41.5347C90.2427 41.5347 89.44 41.3449 88.724 40.9652C88.019 40.5856 87.4603 40.0432 87.0481 39.3381C86.6467 38.633 86.4461 37.8086 86.4461 36.8649C86.4461 35.932 86.6522 35.113 87.0644 34.4079C87.4766 33.692 88.0406 33.1442 88.7566 32.7645C89.4725 32.3849 90.2752 32.195 91.1647 32.195C92.0542 32.195 92.8569 32.3849 93.5729 32.7645C94.2888 33.1442 94.8529 33.692 95.2651 34.4079C95.6773 35.113 95.8834 35.932 95.8834 36.8649C95.8834 37.7978 95.6718 38.6222 95.2488 39.3381C94.8366 40.0432 94.2671 40.5856 93.5403 40.9652C92.8244 41.3449 92.0217 41.5347 91.1322 41.5347ZM91.1322 39.1266C91.6637 39.1266 92.1139 38.9313 92.4827 38.5408C92.8623 38.1503 93.0522 37.5917 93.0522 36.8649C93.0522 36.1381 92.8678 35.5795 92.499 35.1889C92.141 34.7984 91.6962 34.6032 91.1647 34.6032C90.6223 34.6032 90.1722 34.7984 89.8142 35.1889C89.4562 35.5686 89.2773 36.1273 89.2773 36.8649C89.2773 37.5917 89.4508 38.1503 89.7979 38.5408C90.1559 38.9313 90.6006 39.1266 91.1322 39.1266ZM101.492 41.5347C100.603 41.5347 99.8001 41.3449 99.0842 40.9652C98.3791 40.5856 97.8205 40.0432 97.4083 39.3381C97.0069 38.633 96.8062 37.8086 96.8062 36.8649C96.8062 35.932 97.0123 35.113 97.4245 34.4079C97.8367 33.692 98.4008 33.1442 99.1167 32.7645C99.8327 32.3849 100.635 32.195 101.525 32.195C102.414 32.195 103.217 32.3849 103.933 32.7645C104.649 33.1442 105.213 33.692 105.625 34.4079C106.037 35.113 106.244 35.932 106.244 36.8649C106.244 37.7978 106.032 38.6222 105.609 39.3381C105.197 40.0432 104.627 40.5856 103.9 40.9652C103.185 41.3449 102.382 41.5347 101.492 41.5347ZM101.492 39.1266C102.024 39.1266 102.474 38.9313 102.843 38.5408C103.223 38.1503 103.412 37.5917 103.412 36.8649C103.412 36.1381 103.228 35.5795 102.859 35.1889C102.501 34.7984 102.056 34.6032 101.525 34.6032C100.983 34.6032 100.532 34.7984 100.174 35.1889C99.8164 35.5686 99.6374 36.1273 99.6374 36.8649C99.6374 37.5917 99.811 38.1503 100.158 38.5408C100.516 38.9313 100.961 39.1266 101.492 39.1266ZM107.166 36.8486C107.166 35.9157 107.34 35.0967 107.687 34.3917C108.045 33.6866 108.528 33.1442 109.135 32.7645C109.743 32.3849 110.421 32.195 111.169 32.195C111.766 32.195 112.308 32.3198 112.796 32.5693C113.295 32.8188 113.686 33.155 113.968 33.5781V29.3639H116.75V41.4045H113.968V40.1028C113.707 40.5367 113.333 40.8839 112.845 41.1442C112.368 41.4045 111.809 41.5347 111.169 41.5347C110.421 41.5347 109.743 41.3449 109.135 40.9652C108.528 40.5747 108.045 40.0269 107.687 39.3218C107.34 38.6059 107.166 37.7815 107.166 36.8486ZM113.968 36.8649C113.968 36.1706 113.773 35.6228 113.382 35.2215C113.002 34.8201 112.536 34.6195 111.983 34.6195C111.429 34.6195 110.958 34.8201 110.567 35.2215C110.187 35.612 109.998 36.1544 109.998 36.8486C109.998 37.5428 110.187 38.0961 110.567 38.5083C110.958 38.9096 111.429 39.1103 111.983 39.1103C112.536 39.1103 113.002 38.9096 113.382 38.5083C113.773 38.1069 113.968 37.5591 113.968 36.8649Z" fill="black"/>
<path d="M24.7032 22.2402C24.7032 3.9577 54.081 4.80121 54.0818 22.2402L24.7032 22.2402Z" fill="#FF2253" stroke="#FF2253" stroke-width="3.38983"/>
<ellipse cx="39.0344" cy="7.16808" rx="2.8662" ry="3.34936" fill="#FF2253"/>
</svg>
