<svg width="14" height="13" viewBox="0 0 14 13" fill="none" xmlns="http://www.w3.org/2000/svg">
<path d="M13.1716 11.2078L10.7034 8.73954C10.5799 8.64081 10.4319 8.56676 10.2838 8.56676H9.88884C10.5553 7.70288 10.9749 6.61686 10.9749 5.40743C10.9749 2.59365 8.65473 0.273515 5.84095 0.273515C3.00248 0.273515 0.707031 2.59365 0.707031 5.40743C0.707031 8.24589 3.00248 10.5413 5.84095 10.5413C7.0257 10.5413 8.11172 10.1464 9.00028 9.45532V9.87492C9.00028 10.023 9.04964 10.1711 9.17305 10.2945L11.6166 12.7381C11.8634 12.9849 12.2337 12.9849 12.4558 12.7381L13.1469 12.047C13.3937 11.8248 13.3937 11.4546 13.1716 11.2078ZM5.84095 8.56676C4.0885 8.56676 2.68161 7.15987 2.68161 5.40743C2.68161 3.67967 4.0885 2.2481 5.84095 2.2481C7.56871 2.2481 9.00028 3.67967 9.00028 5.40743C9.00028 7.15987 7.56871 8.56676 5.84095 8.56676Z" fill="#FF2253"/>
</svg>
